# xmcd
#
# Track frame offsets: 
#        150
#        18528
#        31755
#        43631
#        63232
#        82125
#        98950
#        116474
#        131958
#        150126
#        165622
#        184136
#        207364
#
# Disc length: 2863 seconds
#
# Revision: 0
# Processed by: cddbd v1.5.2PL0 Copyright (c) Steve Scherf et al.
# Submitted via: ExactAudioCopyFreeDBPlugin 1.0
#
DISCID=a70b2d0d
DTITLE=Aloe Blacc - Good Things
DYEAR=2010
DGENRE=R&B
TTITLE0=I Need A Dollar
TTITLE1=Green Lights
TTITLE2=Hey Brother
TTITLE3=Miss Fortune
TTITLE4=Life So Hard
TTITLE5=Take Me Back
TTITLE6=Femme Fatale
TTITLE7=Loving You Is Killing Me
TTITLE8=Good Things
TTITLE9=You Make Me Smile
TTITLE10=If I
TTITLE11=Mama Hold My Hand
TTITLE12=Politician (Reprise)
EXTD=
EXTT0=
EXTT1=
EXTT2=
EXTT3=
EXTT4=
EXTT5=
EXTT6=
EXTT7=
EXTT8=
EXTT9=
EXTT10=
EXTT11=
EXTT12=
PLAYORDER=
